<svg xmlns="http://www.w3.org/2000/svg" viewBox="0 0 800 600" fill="none">
  <rect width="800" height="600" fill="#fff"/>
  <defs><pattern id="g" width="20" height="20" patternUnits="userSpaceOnUse"><circle cx="10" cy="10" r="0.5" fill="#000" opacity="0.05"/></pattern></defs>
  <rect width="800" height="600" fill="url(#g)"/>
  <!-- Building -->
  <rect x="120" y="140" width="160" height="280" fill="none" stroke="#000" stroke-width="3"/>
  <rect x="120" y="130" width="160" height="15" fill="#000"/>
  <!-- Windows grid -->
  <rect x="140" y="170" width="30" height="30" fill="#000" opacity="0.15" stroke="#000" stroke-width="1.5"/>
  <rect x="185" y="170" width="30" height="30" fill="#000" opacity="0.15" stroke="#000" stroke-width="1.5"/>
  <rect x="230" y="170" width="30" height="30" fill="#000" opacity="0.15" stroke="#000" stroke-width="1.5"/>
  <rect x="140" y="220" width="30" height="30" fill="#000" opacity="0.15" stroke="#000" stroke-width="1.5"/>
  <rect x="185" y="220" width="30" height="30" fill="#000" opacity="0.15" stroke="#000" stroke-width="1.5"/>
  <rect x="230" y="220" width="30" height="30" fill="#000" opacity="0.15" stroke="#000" stroke-width="1.5"/>
  <rect x="140" y="270" width="30" height="30" fill="#000" opacity="0.15" stroke="#000" stroke-width="1.5"/>
  <rect x="185" y="270" width="30" height="30" fill="#000" opacity="0.15" stroke="#000" stroke-width="1.5"/>
  <rect x="230" y="270" width="30" height="30" fill="#000" opacity="0.15" stroke="#000" stroke-width="1.5"/>
  <!-- Door -->
  <rect x="175" y="360" width="50" height="60" fill="none" stroke="#000" stroke-width="2"/>
  <circle cx="215" cy="393" r="3" fill="#000"/>
  <!-- House outline -->
  <polygon points="500,180 400,260 600,260" fill="none" stroke="#000" stroke-width="3"/>
  <rect x="420" y="260" width="160" height="120" fill="none" stroke="#000" stroke-width="2.5"/>
  <rect x="475" y="310" width="50" height="70" fill="none" stroke="#000" stroke-width="2"/>
  <rect x="430" y="280" width="35" height="28" fill="none" stroke="#000" stroke-width="1.5"/>
  <line x1="447" y1="280" x2="447" y2="308" stroke="#000" stroke-width="1"/>
  <line x1="430" y1="294" x2="465" y2="294" stroke="#000" stroke-width="1"/>
  <!-- Key -->
  <circle cx="550" cy="460" r="30" fill="none" stroke="#000" stroke-width="2.5"/>
  <circle cx="550" cy="460" r="12" fill="none" stroke="#000" stroke-width="2"/>
  <line x1="580" y1="460" x2="660" y2="460" stroke="#000" stroke-width="2.5"/>
  <line x1="660" y1="460" x2="660" y2="480" stroke="#000" stroke-width="2.5"/>
  <line x1="640" y1="460" x2="640" y2="475" stroke="#000" stroke-width="2.5"/>
  <!-- Map Pin -->
  <path d="M200 480 Q200 450 230 450 Q260 450 260 480 Q260 510 230 540 Q200 510 200 480Z" fill="none" stroke="#000" stroke-width="2.5"/>
  <circle cx="230" cy="478" r="10" fill="#000"/>
  <!-- Property Grid lines -->
  <line x1="680" y1="160" x2="760" y2="160" stroke="#000" stroke-width="1.5" opacity="0.3"/>
  <line x1="680" y1="200" x2="760" y2="200" stroke="#000" stroke-width="1.5" opacity="0.3"/>
  <line x1="680" y1="240" x2="760" y2="240" stroke="#000" stroke-width="1.5" opacity="0.3"/>
  <line x1="680" y1="160" x2="680" y2="240" stroke="#000" stroke-width="1.5" opacity="0.3"/>
  <line x1="720" y1="160" x2="720" y2="240" stroke="#000" stroke-width="1.5" opacity="0.3"/>
  <line x1="760" y1="160" x2="760" y2="240" stroke="#000" stroke-width="1.5" opacity="0.3"/>
</svg>