<svg xmlns="http://www.w3.org/2000/svg" viewBox="0 0 1200 630" width="1200" height="630">
      <rect width="1200" height="630" fill="#fff"/>
      <line x1="0" y1="0" x2="0" y2="630" stroke="#000" stroke-width="1" opacity="0.08"/><line x1="60" y1="0" x2="60" y2="630" stroke="#000" stroke-width="1" opacity="0.08"/><line x1="120" y1="0" x2="120" y2="630" stroke="#000" stroke-width="1" opacity="0.08"/><line x1="180" y1="0" x2="180" y2="630" stroke="#000" stroke-width="1" opacity="0.08"/><line x1="240" y1="0" x2="240" y2="630" stroke="#000" stroke-width="1" opacity="0.08"/><line x1="300" y1="0" x2="300" y2="630" stroke="#000" stroke-width="1" opacity="0.08"/><line x1="360" y1="0" x2="360" y2="630" stroke="#000" stroke-width="1" opacity="0.08"/><line x1="420" y1="0" x2="420" y2="630" stroke="#000" stroke-width="1" opacity="0.08"/><line x1="480" y1="0" x2="480" y2="630" stroke="#000" stroke-width="1" opacity="0.08"/><line x1="540" y1="0" x2="540" y2="630" stroke="#000" stroke-width="1" opacity="0.08"/><line x1="600" y1="0" x2="600" y2="630" stroke="#000" stroke-width="1" opacity="0.08"/><line x1="660" y1="0" x2="660" y2="630" stroke="#000" stroke-width="1" opacity="0.08"/><line x1="720" y1="0" x2="720" y2="630" stroke="#000" stroke-width="1" opacity="0.08"/><line x1="780" y1="0" x2="780" y2="630" stroke="#000" stroke-width="1" opacity="0.08"/><line x1="840" y1="0" x2="840" y2="630" stroke="#000" stroke-width="1" opacity="0.08"/><line x1="900" y1="0" x2="900" y2="630" stroke="#000" stroke-width="1" opacity="0.08"/><line x1="960" y1="0" x2="960" y2="630" stroke="#000" stroke-width="1" opacity="0.08"/><line x1="1020" y1="0" x2="1020" y2="630" stroke="#000" stroke-width="1" opacity="0.08"/><line x1="1080" y1="0" x2="1080" y2="630" stroke="#000" stroke-width="1" opacity="0.08"/><line x1="1140" y1="0" x2="1140" y2="630" stroke="#000" stroke-width="1" opacity="0.08"/><line x1="1200" y1="0" x2="1200" y2="630" stroke="#000" stroke-width="1" opacity="0.08"/><line x1="0" y1="0" x2="1200" y2="0" stroke="#000" stroke-width="1" opacity="0.08"/><line x1="0" y1="60" x2="1200" y2="60" stroke="#000" stroke-width="1" opacity="0.08"/><line x1="0" y1="120" x2="1200" y2="120" stroke="#000" stroke-width="1" opacity="0.08"/><line x1="0" y1="180" x2="1200" y2="180" stroke="#000" stroke-width="1" opacity="0.08"/><line x1="0" y1="240" x2="1200" y2="240" stroke="#000" stroke-width="1" opacity="0.08"/><line x1="0" y1="300" x2="1200" y2="300" stroke="#000" stroke-width="1" opacity="0.08"/><line x1="0" y1="360" x2="1200" y2="360" stroke="#000" stroke-width="1" opacity="0.08"/><line x1="0" y1="420" x2="1200" y2="420" stroke="#000" stroke-width="1" opacity="0.08"/><line x1="0" y1="480" x2="1200" y2="480" stroke="#000" stroke-width="1" opacity="0.08"/><line x1="0" y1="540" x2="1200" y2="540" stroke="#000" stroke-width="1" opacity="0.08"/><line x1="0" y1="600" x2="1200" y2="600" stroke="#000" stroke-width="1" opacity="0.08"/>
      <rect x="190" y="135" width="820" height="360" rx="12" fill="#000" opacity="0.88"/>
      <text x="600" y="295" text-anchor="middle" font-family="Arial,Helvetica,sans-serif" font-size="72" font-weight="bold" fill="#fff" letter-spacing="2">MARKIT MEDIA</text>
      <text x="600" y="365" text-anchor="middle" font-family="Arial,Helvetica,sans-serif" font-size="28" fill="#ccc" letter-spacing="4">INSIGHTS &amp; STRATEGY</text>
      <line x1="450" y1="405" x2="750" y2="405" stroke="#fff" stroke-width="2"/>
      <text x="600" y="450" text-anchor="middle" font-family="Arial,Helvetica,sans-serif" font-size="20" fill="#999">#610</text>
    </svg>